<svg width="0" height="0" style="position:absolute"><symbol viewBox="0 0 119 48" fill="none" id="icon-logo" xmlns="http://www.w3.org/2000/svg"><g clip-path="url(#aclip0_6001_3685)"><path d="M20.243 32.6135C18.8112 30.0414 17.996 27.0814 17.996 23.9317C17.996 20.7822 18.8112 17.8221 20.243 15.2499C18.0932 13.2227 15.191 11.9795 11.9973 11.9795C5.37138 11.9795 0 17.3307 0 23.9317C0 30.5327 5.37138 35.8839 11.9973 35.8839C15.191 35.8839 18.0932 34.6408 20.243 32.6135Z" fill="#339E61"/><path d="M20.8891 31.9558C20.4369 29.5374 20.7875 26.7499 21.8732 23.9318C20.7875 21.1138 20.4369 18.3264 20.8891 15.9079C20.6821 15.6804 20.4666 15.461 20.2429 15.25C18.8111 17.8222 17.9958 20.7823 17.9958 23.9318C17.9958 27.0816 18.8111 30.0416 20.2429 32.6137C20.4666 32.4028 20.6821 32.1833 20.8891 31.9558Z" fill="#339E61"/><path d="M21.8734 23.9316C20.7877 26.7497 20.4372 29.5372 20.8894 31.9556C22.0905 30.6354 22.9996 29.0465 23.5146 27.29C22.8539 26.1801 22.3054 25.0535 21.8734 23.9316Z" fill="#339E61"/><path d="M23.9946 23.9316C23.9946 22.7657 23.8271 21.6387 23.5145 20.5732C22.8538 21.6834 22.3053 22.81 21.8733 23.9316C22.3053 25.0534 22.8538 26.18 23.5145 27.29C23.8271 26.2245 23.9946 25.0976 23.9946 23.9316Z" fill="#339E61"/><path d="M20.8894 15.9077C20.4372 18.3262 20.7877 21.1136 21.8734 23.9317C22.3054 22.8101 22.8539 21.6835 23.5146 20.5733C22.9996 18.817 22.0905 17.228 20.8894 15.9077Z" fill="#339E61"/><path d="M32.5297 11.5553C31.9196 10.5528 31.2374 9.59859 30.4908 8.69972C27.6437 8.61545 25.0953 9.4366 23.2729 11.2483C23.2687 11.2524 23.2646 11.2564 23.2605 11.2605C22.0069 12.5123 21.2257 14.1078 20.8892 15.9076C22.0903 17.2279 22.9993 18.8169 23.5144 20.5732C24.567 18.805 25.9041 17.0785 27.5085 15.4801C29.0853 13.9092 30.7864 12.5954 32.5297 11.5553Z" fill="#339E61"/><path d="M23.9945 23.9315C23.9945 18.3612 27.8195 13.6809 32.9956 12.3551C32.8452 12.0852 32.69 11.8185 32.5297 11.5552C30.7864 12.5953 29.0853 13.909 27.5085 15.48C25.9041 17.0784 24.567 18.8049 23.5144 20.5731C23.827 21.6386 23.9945 22.7655 23.9945 23.9315Z" fill="#339E61"/><path d="M20.2429 15.25C20.4667 15.4609 20.6822 15.6804 20.8892 15.9078C21.2257 14.108 22.0069 12.5125 23.2605 11.2607C22.0786 12.4396 21.0602 13.7816 20.2429 15.25Z" fill="#339E61"/><path d="M17.996 0.780273C7.64693 3.43392 0 12.7931 0 23.9316C0 17.3306 5.37138 11.9794 11.9973 11.9794C15.191 11.9794 18.0932 13.2226 20.243 15.2498C21.0603 13.7814 22.0786 12.4394 23.2606 11.2606L23.2668 11.2544L23.273 11.2483C24.9636 9.56568 26.9884 8.21642 29.2399 7.30793C26.2129 4.19243 22.3429 1.89486 17.996 0.780273Z" fill="#339E61"/><path d="M23.2729 11.2485C25.0953 9.4368 27.6437 8.61565 30.4908 8.69992C30.0919 8.21984 29.6746 7.75553 29.2399 7.30811C26.9884 8.2166 24.9635 9.56585 23.2729 11.2485Z" fill="#339E61"/><path d="M42.4953 8.70836C41.8693 7.95413 41.1976 7.2388 40.4847 6.5666C39.0486 6.19895 37.5431 6.00342 35.992 6.00342C33.6041 6.00342 31.325 6.46674 29.24 7.30805C29.6747 7.75548 30.092 8.21979 30.4909 8.69987C32.2445 8.75177 34.1113 9.14715 35.992 9.86615C38.2354 9.00838 40.4597 8.61119 42.4953 8.70836Z" fill="#339E61"/><path d="M30.491 8.69971C31.2376 9.59858 31.9198 10.5528 32.5299 11.5553C33.6736 10.8729 34.8353 10.3082 35.992 9.86598C34.1114 9.14699 32.2446 8.7516 30.491 8.69971Z" fill="#339E61"/><path d="M35.9919 11.9796C39.2948 11.9796 42.2859 13.3093 44.4554 15.4606C41.8488 12.869 38.9041 10.9796 35.9919 9.86621C34.8352 10.3084 33.6735 10.8731 32.5298 11.5555C32.6901 11.8188 32.8453 12.0855 32.9957 12.3554C33.9532 12.1101 34.9573 11.9796 35.9919 11.9796Z" fill="#339E61"/><path d="M44.4959 15.5006C45.6301 16.633 46.6303 17.8294 47.4905 19.0593C46.6846 15.1825 44.9364 11.6494 42.4952 8.7082C40.4596 8.61104 38.2354 9.00822 35.9919 9.86599C38.9041 10.9794 41.8488 12.8688 44.4554 15.4604C44.469 15.4738 44.4825 15.4871 44.4959 15.5006Z" fill="#339E61"/><path d="M17.9958 0.780441C22.3428 1.89503 26.2127 4.19259 29.2398 7.3081C31.3248 6.46679 33.604 6.00346 35.9918 6.00346C37.5429 6.00346 39.0484 6.19899 40.4845 6.56664C36.185 2.51319 30.3812 0.0273438 23.9945 0.0273438C21.9232 0.0273438 19.9131 0.288816 17.9958 0.780441Z" fill="#339E61"/><path d="M41.9907 29.9079C45.3035 29.9079 47.9893 27.2322 47.9893 23.9316C47.9893 20.6311 45.3035 17.9556 41.9907 17.9556C38.6777 17.9556 35.9919 20.6311 35.9919 23.9316C35.9919 27.2322 38.6777 29.9079 41.9907 29.9079Z" fill="#14141E"/><path d="M35.9919 23.9316C35.9919 28.1314 34.9048 32.0783 32.9956 35.5081C33.9532 35.7534 34.9572 35.8838 35.9919 35.8838C39.301 35.8838 42.297 34.5493 44.4675 32.3909C44.4702 32.3883 44.4727 32.3858 44.4752 32.3831C44.4779 32.3807 44.4803 32.378 44.483 32.3755C46.6494 30.2133 47.9892 27.2283 47.9892 23.9316C47.9892 27.2322 45.3034 29.9078 41.9906 29.9078C38.6776 29.9078 35.9919 27.2322 35.9919 23.9316Z" fill="#14141E"/><path d="M32.5298 36.3082C33.6735 36.9907 34.8352 37.5552 35.9919 37.9975C38.9087 36.8824 41.8581 34.9889 44.4676 32.3911C42.2971 34.5495 39.301 35.884 35.9919 35.884C34.9573 35.884 33.9532 35.7536 32.9957 35.5082C32.8453 35.7782 32.6901 36.0449 32.5298 36.3082Z" fill="#14141E"/><path d="M35.992 37.9973C34.8353 37.5551 33.6736 36.9906 32.5299 36.3081C31.9196 37.3106 31.2376 38.2648 30.491 39.1637C32.2446 39.1118 34.1114 38.7163 35.992 37.9973Z" fill="#14141E"/><path d="M40.4847 41.297C41.1976 40.625 41.8691 39.9096 42.4953 39.1555C40.4597 39.2525 38.2354 38.8554 35.992 37.9976C34.1113 38.7165 32.2445 39.112 30.4909 39.1639C30.092 39.6439 29.6747 40.1083 29.24 40.5557C31.325 41.3969 33.6041 41.8603 35.992 41.8603C37.5431 41.8603 39.0486 41.6648 40.4847 41.297Z" fill="#14141E"/><path d="M17.9958 47.0833C19.9131 47.5749 21.9232 47.8365 23.9945 47.8365C30.3812 47.8365 36.185 45.3505 40.4845 41.297C39.0484 41.6648 37.5429 41.8603 35.9918 41.8603C33.604 41.8603 31.3248 41.3969 29.2398 40.5557C26.2127 43.6712 22.3428 45.9688 17.9958 47.0833Z" fill="#14141E"/><path d="M44.4831 32.3757C44.4779 32.3808 44.4728 32.3859 44.4676 32.3911C41.8581 34.9888 38.9087 36.8824 35.9919 37.9974C38.2354 38.8553 40.4596 39.2524 42.4952 39.1554C44.9364 36.214 46.6846 32.6809 47.4905 28.8042C46.6272 30.0387 45.6225 31.2395 44.4831 32.3757Z" fill="#14141E"/><path d="M47.9893 23.9316C47.9893 27.2283 46.6495 30.2133 44.4832 32.3755C45.6225 31.2393 46.6272 30.0385 47.4906 28.804C47.8174 27.2309 47.9893 25.6014 47.9893 23.9316Z" fill="#14141E"/><path d="M67.4421 8.71973H70.4764L62.859 21.3561H59.8245L67.4421 8.71973Z" fill="#14141E"/><path d="M69.9812 8.71973H72.5203V21.3561H69.9812V8.71973Z" fill="#14141E"/><path d="M73.1553 8.71973H75.6943V21.3561H73.1553V8.71973Z" fill="#14141E"/><path d="M97.2776 8.71973H99.8167V21.3561H97.2776V8.71973Z" fill="#14141E"/><path d="M83.312 8.71973H85.8511V21.3561H83.312V8.71973Z" fill="#14141E"/><path d="M90.2947 8.71973H92.8338V21.3561H90.2947V8.71973Z" fill="#14141E"/><path d="M108.069 8.71973H110.608V21.3561H108.069V8.71973Z" fill="#14141E"/><path d="M92.8337 8.71973H96.6426V11.247H92.8337V8.71973Z" fill="#14141E"/><path d="M86.4858 8.71973H90.2947V11.247H86.4858V8.71973Z" fill="#14141E"/><path d="M99.8167 8.71973H107.434V11.247H99.8167V8.71973Z" fill="#14141E"/><path d="M99.8167 13.7739H107.434V16.3012H99.8167V13.7739Z" fill="#14141E"/><path d="M99.8167 18.8286H107.434V21.3559H99.8167V18.8286Z" fill="#14141E"/><path d="M110.608 13.7739H113.722L119 21.3557H115.886L110.608 13.7739Z" fill="#14141E"/><path d="M119 8.71973H115.886L110.608 13.7743H113.722L119 8.71973Z" fill="#14141E"/><path d="M83.312 8.71973H80.7727L78.2336 21.3561H80.7727L83.312 8.71973Z" fill="#14141E"/><path d="M75.6943 8.71973H78.2336L80.7727 21.3561H78.2336L75.6943 8.71973Z" fill="#14141E"/><path d="M65.2329 13.7739H70.616V16.3012H65.2329V13.7739Z" fill="#14141E"/><path d="M62.3028 27.7731C62.3028 28.0661 62.2493 28.3192 62.1425 28.5325C62.0355 28.7459 61.889 28.9104 61.7024 29.0261C61.5161 29.1418 61.3031 29.1996 61.0636 29.1996C60.8242 29.1996 60.6114 29.1418 60.4248 29.0261C60.2385 28.9104 60.0918 28.7459 59.985 28.5325C59.878 28.3192 59.8245 28.0661 59.8245 27.7731C59.8245 27.4804 59.878 27.2273 59.985 27.014C60.0918 26.8006 60.2385 26.6361 60.4248 26.5204C60.6114 26.4045 60.8242 26.3467 61.0636 26.3467C61.3031 26.3467 61.5161 26.4045 61.7024 26.5204C61.889 26.6361 62.0355 26.8006 62.1425 27.014C62.2493 27.2273 62.3028 27.4804 62.3028 27.7731ZM61.9739 27.7731C61.9739 27.5327 61.9332 27.3299 61.8518 27.1643C61.7714 26.999 61.6624 26.8739 61.5243 26.7887C61.3872 26.7038 61.2337 26.6613 61.0636 26.6613C60.8938 26.6613 60.7397 26.7038 60.6017 26.7887C60.4647 26.8739 60.3554 26.999 60.2742 27.1643C60.1937 27.3299 60.1536 27.5327 60.1536 27.7731C60.1536 28.0138 60.1937 28.2166 60.2742 28.382C60.3554 28.5475 60.4647 28.6726 60.6017 28.7576C60.7397 28.8427 60.8938 28.8851 61.0636 28.8851C61.2337 28.8851 61.3872 28.8427 61.5243 28.7576C61.6624 28.6726 61.7714 28.5475 61.8518 28.382C61.9332 28.2166 61.9739 28.0138 61.9739 27.7731Z" fill="#818181"/><path d="M62.8743 29.1618V26.3848H64.5686V26.6832H63.2141V27.5509H63.9271C64.1281 27.5509 64.2975 27.5835 64.4355 27.6486C64.5746 27.7136 64.6795 27.8055 64.7508 27.9238C64.8231 28.0422 64.859 28.1819 64.859 28.3429C64.859 28.5037 64.8231 28.6457 64.7508 28.7686C64.6795 28.8916 64.5746 28.9878 64.4355 29.0574C64.2975 29.1269 64.1281 29.1618 63.9271 29.1618H62.8743ZM63.2141 28.8689H63.9271C64.055 28.8689 64.1632 28.8436 64.2519 28.793C64.3415 28.7415 64.4091 28.6754 64.4547 28.595C64.5014 28.5136 64.5246 28.4278 64.5246 28.3374C64.5246 28.2045 64.4731 28.0902 64.3698 27.9944C64.2665 27.8976 64.119 27.8492 63.9271 27.8492H63.2141V28.8689Z" fill="#818181"/><path d="M65.0466 26.6832V26.3848H65.8745V26.6832H65.0466ZM66.0664 27.5509H66.867C67.068 27.5509 67.2376 27.5835 67.3754 27.6486C67.5144 27.7136 67.6194 27.8055 67.6907 27.9238C67.763 28.0422 67.7991 28.1819 67.7991 28.3429C67.7991 28.5037 67.763 28.6457 67.6907 28.7686C67.6194 28.8916 67.5144 28.9878 67.3754 29.0574C67.2376 29.1269 67.068 29.1618 66.867 29.1618H65.8141V26.3848H66.1542V28.8689H66.867C66.9948 28.8689 67.1031 28.8436 67.1917 28.793C67.2814 28.7415 67.349 28.6754 67.3946 28.595C67.4413 28.5136 67.4646 28.4278 67.4646 28.3374C67.4646 28.2045 67.413 28.0902 67.3097 27.9944C67.2064 27.8976 67.0589 27.8492 66.867 27.8492H66.0664V27.5509Z" fill="#818181"/><path d="M68.3367 29.1618V26.3848H70.0308V26.6832H68.6765V27.6215H69.9432V27.9197H68.6765V28.8635H70.0527V29.1618H68.3367Z" fill="#818181"/><path d="M70.4021 29.8344V28.8635H70.5831C70.6453 28.8075 70.7037 28.7284 70.7585 28.6262C70.8143 28.5232 70.8614 28.3858 70.8998 28.2141C70.939 28.0414 70.9651 27.8221 70.9779 27.5565L71.0382 26.3848H72.705V28.8635H73.0286V29.8289H72.705V29.1618H70.7256V29.8344H70.4021ZM70.9888 28.8635H72.3815V26.6832H71.3452L71.3014 27.5565C71.2905 27.7589 71.2713 27.9423 71.2438 28.1068C71.2163 28.2705 71.1812 28.4155 71.1382 28.5421C71.0952 28.6678 71.0454 28.7749 70.9888 28.8635Z" fill="#818181"/><path d="M73.5422 26.3848H73.8767V28.5706H73.9042L75.4394 26.3848H75.7683V29.1618H75.4285V26.9815H75.401L73.8713 29.1618H73.5422V26.3848Z" fill="#818181"/><path d="M76.4487 29.1618V26.3848H76.7886V27.6215H78.2856V26.3848H78.6254V29.1618H78.2856V27.9197H76.7886V29.1618H76.4487Z" fill="#818181"/><path d="M79.3059 29.1618V26.3848H81.0002V26.6832H79.646V27.6215H80.9126V27.9197H79.646V28.8635H81.0221V29.1618H79.3059Z" fill="#818181"/><path d="M81.613 29.1618V26.3848H81.9531V27.6215H83.4499V26.3848H83.7897V29.1618H83.4499V27.9197H81.9531V29.1618H81.613Z" fill="#818181"/><path d="M84.4705 29.1618V26.3848H84.8103V27.6215H86.3071V26.3848H86.6472V29.1618H86.3071V27.9197H84.8103V29.1618H84.4705Z" fill="#818181"/><path d="M87.4428 29.1618H87.0864L88.1173 26.3848H88.4681L89.4991 29.1618H89.1427L88.3037 26.8241H88.2818L87.4428 29.1618ZM87.5744 28.0771H89.0111V28.3753H87.5744V28.0771Z" fill="#818181"/><path d="M91.8443 29.1618H91.5044V26.6832H90.9068C90.7551 26.6832 90.633 26.7062 90.5407 26.7524C90.4485 26.7975 90.3812 26.8617 90.3392 26.9448C90.2971 27.028 90.2762 27.1253 90.2762 27.2365C90.2762 27.3476 90.2967 27.4434 90.3378 27.5238C90.3799 27.6034 90.4467 27.665 90.538 27.7083C90.6303 27.7517 90.7514 27.7733 90.9012 27.7733H91.6579V28.0771H90.8902C90.6727 28.0771 90.4942 28.0414 90.3543 27.97C90.2144 27.8976 90.1107 27.7983 90.0432 27.6717C89.9756 27.5452 89.9417 27.3999 89.9417 27.2365C89.9417 27.0728 89.9756 26.9267 90.0432 26.7985C90.1107 26.6701 90.2149 26.5692 90.3558 26.4962C90.4964 26.4219 90.6764 26.3848 90.8958 26.3848H91.8443V29.1618ZM90.5229 27.9144H90.9068L90.2268 29.1618H89.832L90.5229 27.9144Z" fill="#818181"/><path d="M59.9341 31.3169H60.2686V33.5027H60.296L61.8313 31.3169H62.1602V34.0939H61.8203V31.9134H61.7928L60.263 34.0939H59.9341V31.3169Z" fill="#818181"/><path d="M62.8406 34.0939V31.3169H63.1804V32.5534H64.6774V31.3169H65.0173V34.0939H64.6774V32.8519H63.1804V34.0939H62.8406Z" fill="#818181"/><path d="M67.3591 31.3169V34.0939H67.019V31.3169H67.3591ZM65.4619 34.0939L66.3722 32.6457L65.5388 31.3169H65.9499L66.6792 32.5481H67.7045L68.4338 31.3169H68.8449L68.0062 32.651L68.9162 34.0939H68.527L67.7649 32.8627H66.6133L65.8458 34.0939H65.4619Z" fill="#818181"/><path d="M69.3618 34.0939V31.3169H71.0561V31.6151H69.7019V32.5534H70.9685V32.8519H69.7019V33.7955H71.078V34.0939H69.3618Z" fill="#818181"/><path d="M71.6687 34.0939V31.3169H72.0086V32.5534H73.5056V31.3169H73.8454V34.0939H73.5056V32.8519H72.0086V34.0939H71.6687Z" fill="#818181"/><path d="M74.5261 34.0939V31.3169H76.2202V31.6151H74.866V32.5534H76.1326V32.8519H74.866V33.7955H76.2421V34.0939H74.5261Z" fill="#818181"/><path d="M76.833 34.0939V31.3169H77.7815C78.0017 31.3169 78.1819 31.3563 78.3217 31.4348C78.4624 31.5126 78.5666 31.6178 78.6341 31.7507C78.7019 31.8837 78.7356 32.032 78.7356 32.1955C78.7356 32.3592 78.7019 32.5079 78.6341 32.6416C78.5674 32.7754 78.4643 32.882 78.3244 32.9616C78.1846 33.0402 78.0054 33.0796 77.7871 33.0796H77.1072V32.7813H77.7761C77.9269 32.7813 78.048 32.7555 78.1393 32.704C78.2306 32.6525 78.297 32.5829 78.3381 32.4952C78.3802 32.4065 78.4011 32.3066 78.4011 32.1955C78.4011 32.0843 78.3802 31.985 78.3381 31.8972C78.297 31.8096 78.2302 31.7409 78.1381 31.691C78.0457 31.6406 77.9232 31.6151 77.7705 31.6151H77.1731V34.0939H76.833Z" fill="#818181"/><path d="M79.2834 34.0939V31.3169H79.6233V32.5534H81.1203V31.3169H81.4602V34.0939H81.1203V32.8519H79.6233V34.0939H79.2834Z" fill="#818181"/><path d="M82.2558 34.0939H81.8994L82.9301 31.3169H83.2811L84.3119 34.0939H83.9555L83.1167 31.7563H83.0946L82.2558 34.0939ZM82.3874 33.009H83.8239V33.3075H82.3874V33.009Z" fill="#818181"/><path d="M86.6575 34.0939H86.3175V31.6151H85.7198C85.5681 31.6151 85.4462 31.6383 85.3539 31.6843C85.2615 31.7296 85.1944 31.7938 85.1523 31.8769C85.1103 31.96 85.0892 32.0572 85.0892 32.1684C85.0892 32.2796 85.1099 32.3754 85.151 32.4558C85.193 32.5354 85.2597 32.5969 85.351 32.6402C85.4434 32.6837 85.5644 32.7054 85.7144 32.7054H86.471V33.009H85.7035C85.4859 33.009 85.3072 32.9733 85.1673 32.9019C85.0277 32.8297 84.924 32.7302 84.8562 32.6037C84.7886 32.4771 84.7548 32.3321 84.7548 32.1684C84.7548 32.0049 84.7886 31.8588 84.8562 31.7304C84.924 31.602 85.0281 31.5013 85.1688 31.4281C85.3095 31.354 85.4896 31.3169 85.7088 31.3169H86.6575V34.0939ZM85.3361 32.8463H85.7198L85.0399 34.0939H84.6453L85.3361 32.8463Z" fill="#818181"/><path d="M61.5846 39.0261L60.6196 37.7514H60.2741V39.0261H59.9341V36.249H60.2741V37.4531H60.4221L61.5462 36.249H61.9519L60.8169 37.4695L61.9901 39.0261H61.5846Z" fill="#818181"/><path d="M64.6663 37.6374C64.6663 37.9303 64.6128 38.1835 64.5058 38.3968C64.399 38.6101 64.2523 38.7746 64.0658 38.8903C63.8794 39.006 63.6664 39.0639 63.4272 39.0639C63.1877 39.0639 62.9747 39.006 62.7884 38.8903C62.6018 38.7746 62.4551 38.6101 62.3483 38.3968C62.2413 38.1835 62.188 37.9303 62.188 37.6374C62.188 37.3445 62.2413 37.0916 62.3483 36.8782C62.4551 36.6649 62.6018 36.5002 62.7884 36.3845C62.9747 36.2688 63.1877 36.2109 63.4272 36.2109C63.6664 36.2109 63.8794 36.2688 64.0658 36.3845C64.2523 36.5002 64.399 36.6649 64.5058 36.8782C64.6128 37.0916 64.6663 37.3445 64.6663 37.6374ZM64.3372 37.6374C64.3372 37.397 64.2965 37.1941 64.2153 37.0286C64.1348 36.8632 64.0257 36.7379 63.8877 36.653C63.7505 36.5681 63.597 36.5256 63.4272 36.5256C63.2571 36.5256 63.103 36.5681 62.9652 36.653C62.828 36.7379 62.7189 36.8632 62.6375 37.0286C62.5572 37.1941 62.5169 37.397 62.5169 37.6374C62.5169 37.8778 62.5572 38.0809 62.6375 38.2462C62.7189 38.4118 62.828 38.5369 62.9652 38.6218C63.103 38.7067 63.2571 38.7494 63.4272 38.7494C63.597 38.7494 63.7505 38.7067 63.8877 38.6218C64.0257 38.5369 64.1348 38.4118 64.2153 38.2462C64.2965 38.0809 64.3372 37.8778 64.3372 37.6374Z" fill="#818181"/><path d="M65.2378 36.249H65.6435L66.5976 38.5543H66.6305L67.5845 36.249H67.9903V39.0261H67.6723V36.9163H67.6449L66.7676 39.0261H66.4606L65.5832 36.9163H65.5559V39.0261H65.2378V36.249Z" fill="#818181"/><path d="M70.772 36.249V39.0261H70.4321V36.5475H69.0173V39.0261H68.6775V36.249H70.772Z" fill="#818181"/><path d="M71.5729 39.0261H71.2163L72.2472 36.249H72.598L73.629 39.0261H73.2726L72.4336 36.6884H72.4117L71.5729 39.0261ZM71.7045 37.9413H73.141V38.2396H71.7045V37.9413Z" fill="#818181"/><path d="M74.0662 39.0261V36.249H74.4062V37.4857H75.903V36.249H76.2431V39.0261H75.903V37.784H74.4062V39.0261H74.0662Z" fill="#818181"/><path d="M76.9236 36.249H77.2581V38.4349H77.2855L78.8208 36.249H79.1497V39.0261H78.8098V36.8457H78.7823L77.2525 39.0261H76.9236V36.249Z" fill="#818181"/><path d="M81.7378 39.0261H81.398V36.5475H80.8003C80.6487 36.5475 80.5266 36.5705 80.4344 36.6166C80.3421 36.6617 80.2749 36.7259 80.2328 36.809C80.1908 36.8923 80.1698 36.9895 80.1698 37.1007C80.1698 37.2119 80.1904 37.3077 80.2315 37.3881C80.2735 37.4677 80.3402 37.529 80.4315 37.5725C80.5239 37.6158 80.6449 37.6375 80.7949 37.6375H81.5515V37.9413H80.784C80.5664 37.9413 80.3877 37.9056 80.2479 37.8343C80.1082 37.7618 80.0045 37.6624 79.9367 37.5358C79.8692 37.4092 79.8353 37.2642 79.8353 37.1007C79.8353 36.937 79.8692 36.791 79.9367 36.6626C80.0045 36.5344 80.1086 36.4334 80.2493 36.3602C80.39 36.2862 80.5702 36.249 80.7894 36.249H81.7378V39.0261ZM80.4165 37.7787H80.8003L80.1204 39.0261H79.7256L80.4165 37.7787Z" fill="#818181"/></g><defs><clipPath id="aclip0_6001_3685"><rect width="119" height="48" fill="white"/></clipPath></defs></symbol><symbol viewBox="0 0 49 49" fill="none" id="icon-whatsapp" xmlns="http://www.w3.org/2000/svg"><rect width="49" height="49" rx="24.5" fill="white"/><path d="M31.9268 17.0625C29.9512 15.0937 27.3171 14 24.5366 14C18.7561 14 14.0732 18.6667 14.0732 24.4271C14.0732 26.25 14.5854 28.0729 15.4634 29.6042L14 35L19.561 33.5417C21.0976 34.3438 22.7805 34.7812 24.5366 34.7812C30.3171 34.7812 35 30.1146 35 24.3542C34.9268 21.6563 33.9024 19.0312 31.9268 17.0625ZM29.5854 28.1458C29.3659 28.7292 28.3415 29.3125 27.8293 29.3854C27.3902 29.4583 26.8049 29.4583 26.2195 29.3125C25.8537 29.1667 25.3415 29.0208 24.7561 28.7292C22.122 27.6354 20.439 25.0104 20.2927 24.7917C20.1463 24.6458 19.1951 23.4062 19.1951 22.0937C19.1951 20.7812 19.8537 20.1979 20.0732 19.9062C20.2927 19.6146 20.5854 19.6146 20.8049 19.6146C20.9512 19.6146 21.1707 19.6146 21.3171 19.6146C21.4634 19.6146 21.6829 19.5417 21.9024 20.0521C22.122 20.5625 22.6341 21.875 22.7073 21.9479C22.7805 22.0938 22.7805 22.2396 22.7073 22.3854C22.6341 22.5312 22.561 22.6771 22.4146 22.8229C22.2683 22.9687 22.1219 23.1875 22.0488 23.2604C21.9024 23.4062 21.7561 23.5521 21.9024 23.7708C22.0488 24.0625 22.561 24.8646 23.3659 25.5937C24.3902 26.4687 25.1951 26.7604 25.4878 26.9063C25.7805 27.0521 25.9268 26.9792 26.0732 26.8333C26.2195 26.6875 26.7317 26.1042 26.878 25.8125C27.0244 25.5208 27.2439 25.5938 27.4634 25.6667C27.6829 25.7396 29 26.3958 29.2195 26.5417C29.5122 26.6875 29.6585 26.7604 29.7317 26.8333C29.8049 27.0521 29.8049 27.5625 29.5854 28.1458Z" fill="#48C95F"/></symbol></svg>