<svg width="35" height="30" viewBox="0 0 35 30" fill="none" xmlns="http://www.w3.org/2000/svg">
<path d="M33.4783 13.9463H1.52172C0.681288 13.9463 0 14.6179 0 15.4463C0 16.2747 0.681288 16.9463 1.52172 16.9463H33.4783C34.3187 16.9463 35 16.2747 35 15.4463C35.0001 14.6179 34.3187 13.9463 33.4783 13.9463Z" fill="#339E61"/>
<path d="M1.52172 7.94629H33.4783C34.3187 7.94629 35 7.27472 35 6.44629C35 5.61785 34.3187 4.94629 33.4783 4.94629H1.52172C0.681288 4.94629 0 5.61785 0 6.44629C0 7.27472 0.681288 7.94629 1.52172 7.94629Z" fill="#339E61"/>
<path d="M33.4783 22.9463H1.52172C0.681288 22.9463 0 23.6179 0 24.4463C0 25.2747 0.681288 25.9463 1.52172 25.9463H33.4783C34.3187 25.9463 35 25.2747 35 24.4463C35.0001 23.6179 34.3187 22.9463 33.4783 22.9463Z" fill="#339E61"/>
</svg>
